<?xml version="1.0" encoding="UTF-8" standalone="no"?>
<svg
   version="1.0"
   width="1280pt"
   height="1030pt"
   viewBox="0 0 1280 1030"
   preserveAspectRatio="xMidYMid"
   id="svg8"
   xmlns="http://www.w3.org/2000/svg"
   xmlns:svg="http://www.w3.org/2000/svg">
  <defs
     id="defs12" />
  <metadata
     id="metadata2">
Created by potrace 1.15, written by Peter Selinger 2001-2017
</metadata>
  <g
     transform="matrix(0.1,0,0,-0.1,0,1030)"
     fill="#000000"
     stroke="none"
     id="g6"
     style="fill:#348ceb;fill-opacity:1">
    <path
       d="m 7002,10287 c -55,-17 -118,-82 -157,-160 -67,-139 -84,-252 -85,-567 0,-281 -8,-360 -60,-634 -53,-274 -64,-320 -107,-450 -33,-102 -36,-118 -37,-241 l -1,-132 -37,-55 c -47,-72 -101,-179 -123,-248 -10,-30 -20,-59 -24,-65 -3,-5 -6,-14 -7,-20 -14,-89 -120,-353 -191,-479 -152,-268 -363,-556 -408,-556 -23,0 -35,-17 -35,-47 0,-20 -54,-79 -212,-229 -161,-155 -338,-302 -708,-590 -162,-126 -321,-250 -354,-276 -42,-33 -67,-46 -81,-42 -27,7 -68,-26 -89,-71 -16,-34 -120,-119 -353,-289 -83,-60 -94,-66 -113,-54 -19,12 -24,9 -53,-23 -18,-20 -40,-48 -49,-61 -20,-29 -209,-149 -356,-226 -76,-40 -107,-51 -115,-43 -28,28 -129,-6 -166,-57 -17,-25 -41,-37 -129,-66 -230,-75 -339,-103 -877,-226 C 1587,4269 1448,4226 1222,4120 1014,4021 922,3936 840,3766 739,3556 731,3358 812,3115 l 40,-119 -7,-177 c -6,-162 -5,-183 15,-263 14,-53 20,-99 16,-118 -4,-22 -43,-69 -134,-162 C 672,2204 575,2089 525,2021 297,1709 225,1616 121,1498 60,1428 10,1367 10,1363 c 1,-7 101,-82 140,-103 11,-7 -2,-25 -55,-80 -39,-39 -71,-74 -72,-78 -3,-7 163,-72 185,-72 6,0 12,-4 12,-9 0,-13 -80,-162 -98,-183 -14,-17 -10,-18 74,-19 49,-1 104,-1 122,0 31,3 33,1 23,-18 -11,-19 -71,-185 -71,-194 0,-2 10,-3 23,0 12,2 61,7 110,11 l 87,8 -5,-66 c -3,-36 -8,-82 -11,-103 -2,-21 -1,-36 4,-33 4,2 46,11 92,19 47,9 93,18 103,22 14,6 17,2 17,-21 0,-16 9,-58 20,-94 11,-36 20,-75 20,-88 0,-22 1,-22 67,11 133,67 195,66 405,-2 237,-77 386,-111 638,-145 C 2533,34 3597,12 7625,8 c 2431,-3 2518,-2 3355,32 439,18 874,48 1110,75 188,22 589,86 629,100 56,19 72,50 78,146 14,214 -115,441 -292,515 -21,8 -79,25 -129,37 -87,21 -114,22 -576,23 -484,1 -553,5 -682,39 -184,48 -321,144 -412,287 -85,135 -110,252 -111,518 0,161 3,204 18,246 41,119 148,164 464,194 132,12 184,28 200,61 20,37 15,157 -13,380 -25,199 -25,215 -21,654 5,469 10,533 57,747 12,51 39,145 61,208 183,518 225,722 216,1055 -9,359 -79,586 -328,1060 -171,327 -302,595 -374,770 -124,298 -234,658 -290,945 -34,177 -34,175 -50,490 -19,371 -31,460 -86,605 -28,74 -104,154 -169,177 -25,9 -124,46 -220,83 -721,276 -1350,418 -1945,440 -243,9 -282,23 -560,195 -301,187 -436,235 -553,197 z M 8482,2898 c 4,-204 8,-241 27,-299 42,-132 129,-232 279,-322 94,-56 156,-73 320,-87 280,-23 349,-56 387,-183 37,-121 36,-387 0,-531 -54,-214 -198,-361 -425,-435 -132,-42 -225,-50 -720,-61 -261,-5 -605,-15 -765,-22 -452,-19 -1453,-17 -1701,5 -399,34 -540,59 -661,120 -143,72 -208,148 -257,297 -48,145 -60,230 -61,410 0,299 27,323 426,385 223,35 490,101 1034,256 379,109 890,276 1525,499 548,193 564,198 576,199 9,1 13,-66 16,-231 z M 1305,2334 c 44,-12 91,-28 105,-34 l 25,-11 -25,6 c -69,15 -266,68 -270,71 -9,9 87,-9 165,-32 z m 830,-178 c 328,-54 694,-85 988,-86 338,0 508,-28 562,-92 24,-29 25,-34 25,-189 0,-257 -38,-454 -103,-540 -67,-87 -198,-173 -334,-218 -149,-50 -216,-55 -713,-56 -496,0 -566,5 -750,51 -52,13 -141,47 -197,74 -85,42 -116,64 -180,128 -135,135 -187,257 -166,393 26,166 194,404 350,496 119,69 264,80 518,39 z m -795,-173 c -110,-145 -179,-336 -167,-462 l 5,-56 -11,44 c -22,90 19,252 94,377 36,58 116,164 124,164 3,0 -17,-30 -45,-67 z m 8153,-764 c -27,-47 -78,-104 -126,-140 -32,-25 -27,-19 19,26 33,33 73,79 89,103 32,49 45,57 18,11 z M 1935,916 c 158,-27 322,-36 655,-37 337,-2 342,-10 15,-24 -259,-11 -599,20 -770,70 -52,15 -47,15 100,-9 z m 4018,-23 c -51,-2 -135,-2 -185,0 -51,1 -10,3 92,3 102,0 143,-2 93,-3 z m 5134,1 c -3,-3 -12,-4 -19,-1 -8,3 -5,6 6,6 11,1 17,-2 13,-5 z m 81,-11 c -10,-2 -26,-2 -35,0 -10,3 -2,5 17,5 19,0 27,-2 18,-5 z m 635,0 c -29,-2 -77,-2 -105,0 -29,2 -6,3 52,3 58,0 81,-1 53,-3 z m 310,0 c -7,-2 -21,-2 -30,0 -10,3 -4,5 12,5 17,0 24,-2 18,-5 z m -600,-10 c -56,-2 -151,-2 -210,0 -59,1 -13,3 102,3 116,0 164,-2 108,-3 z m 1192,-448 5,-50 -14,55 c -29,119 -29,119 -11,80 9,-19 18,-57 20,-85 z"
       id="path4"
       style="fill:#348ceb;fill-opacity:1" />
  </g>
</svg>
